# xmcd
#
# Track frame offsets: 
#        150
#        15374
#        32473
#        49989
#        66563
#        83623
#        100470
#        118523
#        134878
#        152066
#        168822
#        184816
#
# Disc length: 2713 seconds
#
# Revision: 0
# Processed by: cddbd v1.5.2PL0 Copyright (c) Steve Scherf et al.
# Submitted via: ExactAudioCopy v0.99pb4
#
DISCID=9c0a970c
DTITLE=Rigo Luna - Rigo Luna
DYEAR=2200
DGENRE=R&B
TTITLE0=Juana Maria
TTITLE1=Entregate
TTITLE2=Are You Down
TTITLE3=Nunca
TTITLE4=Mujeres Hoteles
TTITLE5=Si Tu Te Vas
TTITLE6=Tonight
TTITLE7=Keep It On The Low
TTITLE8=Lento
TTITLE9=All I Want
TTITLE10=Rata
TTITLE11=Nunca
EXTD=
EXTT0=
EXTT1=
EXTT2=
EXTT3=
EXTT4=
EXTT5=
EXTT6=
EXTT7=
EXTT8=
EXTT9=
EXTT10=
EXTT11=
PLAYORDER=
